<?xml version="1.0"?>
<!DOCTYPE svg PUBLIC "-//W3C//DTD SVG 1.1//EN" "http://www.w3.org/Graphics/SVG/1.1/DTD/svg11.dtd">
 
<svg xmlns="http://www.w3.org/2000/svg" width="238pt" height="239pt" viewBox="0 0 238 239" version="1.1">
<path fill="#ffffff" d=" M 0.00 0.00 L 9.54 0.00 C 4.83 1.00 1.09 4.76 0.00 9.43 L 0.00 0.00 Z"/>
<path fill="#004b85" d=" M 9.54 0.00 L 133.10 0.00 C 144.65 11.30 156.50 22.30 168.01 33.65 C 167.98 52.18 168.01 70.71 168.00 89.25 C 161.73 89.57 155.32 88.51 149.16 89.92 C 143.00 91.63 140.35 98.40 140.88 104.29 C 139.74 103.10 138.60 101.92 137.46 100.75 C 137.51 97.58 137.50 94.41 137.51 91.25 C 101.75 91.24 66.00 91.25 30.25 91.25 C 30.25 95.33 30.25 99.42 30.25 103.50 C 60.49 103.46 90.72 103.58 120.96 103.44 C 114.00 110.37 106.97 117.23 100.16 124.29 C 97.18 127.26 97.76 131.71 97.31 135.53 C 97.33 133.35 97.41 131.17 97.52 128.99 C 75.10 129.01 52.68 129.01 30.25 128.99 C 30.25 133.07 30.24 137.16 30.25 141.25 C 53.51 141.25 76.77 141.27 100.03 141.23 C 101.51 141.09 102.83 141.76 104.11 142.42 C 100.29 142.90 95.98 142.24 92.70 144.70 C 88.94 147.07 87.41 151.63 87.51 155.89 C 87.51 165.28 87.43 174.68 87.55 184.07 C 87.54 188.07 89.43 192.07 92.85 194.24 C 95.93 196.46 99.89 196.12 103.47 196.57 C 100.49 197.93 97.19 197.48 94.02 197.51 C 66.32 197.47 38.62 197.54 10.93 197.48 C 5.55 197.50 1.14 193.05 0.00 187.99 L 0.00 9.43 C 1.09 4.76 4.83 1.00 9.54 0.00 Z"/>
<path fill="#ffffff" d=" M 133.10 0.00 L 238.00 0.00 L 238.00 239.00 L 171.56 239.00 C 174.85 238.60 181.43 237.80 184.71 237.39 C 184.50 233.28 184.54 229.16 184.58 225.04 C 188.31 223.88 191.91 222.34 195.38 220.56 C 198.42 223.44 201.12 226.68 204.39 229.31 C 206.41 230.06 207.72 228.20 209.01 227.02 C 215.52 220.30 222.33 213.86 228.76 207.05 C 226.19 203.22 222.66 200.23 219.42 197.01 C 221.27 193.55 222.78 189.93 223.95 186.19 C 228.13 186.12 232.32 186.40 236.49 186.06 C 236.77 185.82 237.33 185.34 237.61 185.10 C 237.71 174.31 238.17 163.44 237.31 152.67 C 233.06 152.62 228.81 152.60 224.56 152.65 C 223.31 148.66 221.75 144.77 219.96 140.99 C 222.95 138.07 225.88 135.09 228.76 132.06 C 222.18 123.68 213.79 116.90 206.62 109.02 C 201.91 109.34 199.66 114.21 196.35 116.93 C 192.55 114.99 188.62 113.33 184.56 112.03 C 184.49 108.23 184.84 104.41 184.36 100.63 C 183.60 98.97 181.56 99.60 180.12 99.40 C 170.84 99.59 161.54 99.19 152.28 99.58 C 152.06 99.79 151.63 100.20 151.41 100.40 C 151.00 104.24 151.32 108.10 151.25 111.95 C 147.21 113.23 143.28 114.83 139.52 116.77 C 137.02 114.25 134.52 111.74 132.00 109.24 C 131.26 109.24 129.77 109.23 129.03 109.22 C 121.93 116.29 114.84 123.37 107.78 130.48 C 107.78 131.04 107.78 132.16 107.78 132.72 C 110.42 135.39 113.08 138.05 115.73 140.72 C 113.88 144.62 112.27 148.63 110.92 152.73 C 107.00 152.69 103.06 152.35 99.15 152.78 C 98.81 153.12 98.13 153.82 97.79 154.17 C 97.49 164.39 97.53 174.67 97.77 184.90 C 98.08 185.18 98.72 185.75 99.04 186.04 C 103.21 186.43 107.41 186.10 111.60 186.20 C 112.82 189.99 114.38 193.67 116.25 197.18 C 113.51 200.22 110.22 202.78 107.84 206.14 C 107.29 208.13 109.28 209.30 110.37 210.61 C 116.82 216.73 122.78 223.37 129.39 229.31 C 129.89 229.32 130.89 229.33 131.39 229.34 C 134.67 226.70 137.34 223.41 140.45 220.59 C 143.84 222.52 147.48 223.97 151.23 225.05 C 151.25 229.11 151.25 233.17 151.25 237.23 C 151.73 237.67 152.67 238.56 153.14 239.00 L 0.00 239.00 L 0.00 187.99 C 1.14 193.05 5.55 197.50 10.93 197.48 C 38.62 197.54 66.32 197.47 94.02 197.51 C 97.19 197.48 100.49 197.93 103.47 196.57 C 99.89 196.12 95.93 196.46 92.85 194.24 C 89.43 192.07 87.54 188.07 87.55 184.07 C 87.43 174.68 87.51 165.28 87.51 155.89 C 87.41 151.63 88.94 147.07 92.70 144.70 C 95.98 142.24 100.29 142.90 104.11 142.42 C 102.83 141.76 101.51 141.09 100.03 141.23 C 76.77 141.27 53.51 141.25 30.25 141.25 C 30.24 137.16 30.25 133.07 30.25 128.99 C 52.68 129.01 75.10 129.01 97.52 128.99 C 97.41 131.17 97.33 133.35 97.31 135.53 C 97.76 131.71 97.18 127.26 100.16 124.29 C 106.97 117.23 114.00 110.37 120.96 103.44 C 90.72 103.58 60.49 103.46 30.25 103.50 C 30.25 99.42 30.25 95.33 30.25 91.25 C 66.00 91.25 101.75 91.24 137.51 91.25 C 137.50 94.41 137.51 97.58 137.46 100.75 C 138.60 101.92 139.74 103.10 140.88 104.29 C 140.35 98.40 143.00 91.63 149.16 89.92 C 155.32 88.51 161.73 89.57 168.00 89.25 C 168.01 70.71 167.98 52.18 168.01 33.65 C 156.50 22.30 144.65 11.30 133.10 0.00 Z"/>
<path fill="#ffffff" d=" M 30.25 56.24 C 66.01 56.27 101.77 56.20 137.52 56.28 C 137.49 60.35 137.50 64.42 137.50 68.50 C 101.73 68.47 65.96 68.56 30.19 68.45 C 30.26 64.38 30.26 60.31 30.25 56.24 Z"/>
<path fill="#f58a1f" d=" M 152.28 99.58 C 161.54 99.19 170.84 99.59 180.12 99.40 C 181.56 99.60 183.60 98.97 184.36 100.63 C 184.84 104.41 184.49 108.23 184.56 112.03 C 188.62 113.33 192.55 114.99 196.35 116.93 C 199.66 114.21 201.91 109.34 206.62 109.02 C 213.79 116.90 222.18 123.68 228.76 132.06 C 225.88 135.09 222.95 138.07 219.96 140.99 C 221.75 144.77 223.31 148.66 224.56 152.65 C 228.81 152.60 233.06 152.62 237.31 152.67 C 238.17 163.44 237.71 174.31 237.61 185.10 C 237.33 185.34 236.77 185.82 236.49 186.06 C 232.32 186.40 228.13 186.12 223.95 186.19 C 222.78 189.93 221.27 193.55 219.42 197.01 C 222.66 200.23 226.19 203.22 228.76 207.05 C 222.33 213.86 215.52 220.30 209.01 227.02 C 207.72 228.20 206.41 230.06 204.39 229.31 C 201.12 226.68 198.42 223.44 195.38 220.56 C 191.91 222.34 188.31 223.88 184.58 225.04 C 184.54 229.16 184.50 233.28 184.71 237.39 C 181.43 237.80 174.85 238.60 171.56 239.00 L 153.14 239.00 C 152.67 238.56 151.73 237.67 151.25 237.23 C 151.25 233.17 151.25 229.11 151.23 225.05 C 147.48 223.97 143.84 222.52 140.45 220.59 C 137.34 223.41 134.67 226.70 131.39 229.34 C 130.89 229.33 129.89 229.32 129.39 229.31 C 122.78 223.37 116.82 216.73 110.37 210.61 C 109.28 209.30 107.29 208.13 107.84 206.14 C 110.22 202.78 113.51 200.22 116.25 197.18 C 114.38 193.67 112.82 189.99 111.60 186.20 C 107.41 186.10 103.21 186.43 99.04 186.04 C 98.72 185.75 98.08 185.18 97.77 184.90 C 97.53 174.67 97.49 164.39 97.79 154.17 C 98.13 153.82 98.81 153.12 99.15 152.78 C 103.06 152.35 107.00 152.69 110.92 152.73 C 112.27 148.63 113.88 144.62 115.73 140.72 C 113.08 138.05 110.42 135.39 107.78 132.72 C 107.78 132.16 107.78 131.04 107.78 130.48 C 114.84 123.37 121.93 116.29 129.03 109.22 C 129.77 109.23 131.26 109.24 132.00 109.24 C 134.52 111.74 137.02 114.25 139.52 116.77 C 143.28 114.83 147.21 113.23 151.25 111.95 C 151.32 108.10 151.00 104.24 151.41 100.40 C 151.63 100.20 152.06 99.79 152.28 99.58 Z"/>
<path fill="#ffffff" d=" M 161.22 141.16 C 169.10 139.21 177.74 140.99 184.29 145.74 C 191.44 150.81 195.99 159.23 196.38 167.98 C 196.80 180.16 188.67 191.96 177.13 195.90 C 167.16 199.55 155.17 196.83 147.84 189.12 C 142.12 183.75 138.89 175.82 139.34 167.98 C 139.42 155.44 149.12 143.98 161.22 141.16 Z"/>
</svg>